<?xml version="1.0" encoding="UTF-8"?>
<svg width="241pt" version="1.1" xmlns="http://www.w3.org/2000/svg" height="240pt" viewBox="0 0 241 240" xmlns:xlink="http://www.w3.org/1999/xlink">
 <defs>
  <clipPath id="Clip0">
   <path d="M0 0 L0 239.654 L240.736 239.654 L240.736 0 L0 0 Z" transform="translate(0, 0.344727)"/>
  </clipPath>
 </defs>
 <g id="Background">
  <g id="Group1" clip-path="url(#Clip0)">
   <path style="fill:#004b80; fill-rule:evenodd;stroke:none;" d="M206.541 73.1289 C210.33 61.3047 190.039 61.1113 193.315 73.4863 C195.396 81.3418 205.149 77.4746 206.541 73.1289 Z M194.744 200.396 C194.19 197.468 188.173 198.53 190.099 201.827 C191.146 204.319 194.767 202.953 194.744 200.396 Z M190.099 183.237 C196.097 184.763 200.285 179.923 200.106 175.728 C199.933 171.582 195.638 169.166 191.528 170.009 C187.789 170.775 185.539 175.912 186.522 179.304 C187.089 181.257 188.656 182.871 190.099 183.237 Z M161.142 18.0732 C160.96 18.0693 159.072 19.6826 158.638 17.7177 C160.31 16.4912 157.944 17.6865 157.565 18.4306 C156.822 23.1103 164.183 21.8994 162.212 18.0732 C162.636 19.8545 161.132 18.0732 161.142 18.0732 Z M95.7198 40.9521 C106.533 45.1045 110.435 26.8427 99.294 26.6533 C94.0889 26.5654 91.2588 30.3525 91.7862 34.8759 C92.1631 38.1142 94.0381 40.3076 95.7198 40.9521 Z M89.999 223.991 C90.0772 220.429 83.5498 221.295 85.3526 225.064 C86.4151 227.287 89.9463 226.411 89.999 223.991 Z M97.8643 206.474 C97.0615 197.15 81.001 200.282 83.9209 210.048 C85.9463 216.825 98.5537 214.493 97.8643 206.474 Z M48.8877 39.8818 C47.5576 45.8193 56.1787 43.5791 52.8194 39.5224 C52.9287 40.4677 52.0733 40.4463 51.3897 40.5947 C52.4776 39.5634 48.9073 39.9502 51.0303 38.8076 C49.6475 38.497 49.7608 39.6806 48.8877 39.8818 Z M185.093 67.0507 C187.515 64.9355 193.194 60.8066 191.171 55.2539 C189.983 51.9961 183.48 47.5615 179.371 44.5283 C166.464 34.9951 147.08 27.4658 128.61 26.6533 C124.669 26.4795 120.69 26.124 117.526 27.3681 C112.522 29.3369 112.257 37.0888 113.235 42.7412 C104.835 43.7529 97.9893 46.3232 91.0713 48.8193 C89.3428 45.5478 87.624 39.8447 83.5635 38.4521 C79.169 36.9424 75.0127 40.5322 71.0518 43.0986 C53.9541 54.1699 40.2237 70.5781 32.7979 90.6445 C31.3682 94.5136 29.6807 99.4882 30.2959 102.444 C31.4932 108.175 39.4873 107.884 43.167 109.95 C42.0127 116.506 41.876 125.97 42.4522 132.116 C38.2295 132.888 33.0303 133.259 30.6553 135.689 C27.3174 139.101 29.5967 145.295 31.0108 149.989 C37.9951 173.155 55.4248 192.394 71.4092 202.185 C78.8135 202.775 81.9424 198.099 84.9951 192.888 C88.7881 195.709 92.9619 196.444 96.792 197.537 C99.6397 198.349 103.22 198.703 105.371 200.754 C104.455 204.896 103.089 211.696 106.442 213.623 C108.185 214.627 111.751 214.295 114.664 214.34 C144.105 214.789 169.817 203.144 183.306 190.03 C183.763 183.495 179.373 181.804 177.23 177.875 C178.085 176.935 179.587 174.763 180.446 175.013 C181.058 173.237 183.121 171.316 184.735 169.295 C186.356 167.261 187.802 164.823 189.384 163.931 C188.192 163.142 189.981 163.088 190.099 162.859 C190.278 162.5 189.647 161.257 190.814 160.715 C194.142 163.109 199.149 165.431 202.61 163.931 C206.164 162.392 207.367 157.72 209.046 153.564 C212.181 145.791 214.703 137.828 215.121 128.896 C213.998 126.892 211.89 126.597 212.263 124.25 C212.541 122.48 215.091 122.423 215.837 120.673 C215.615 116.67 216.628 111.504 216.194 106.375 C215.56 98.8554 213.505 85.9961 209.046 84.209 C204.774 82.5019 200.376 85.5527 196.177 86.7129 C192.841 79.916 187.662 73.0625 184.021 67.7656 C185.162 68.6289 184.694 67.207 185.093 67.0507 Z M37.8037 117.816 C35.3487 110.558 21.5576 112.418 23.8623 122.463 C25.9873 131.73 41.0205 127.321 37.8037 117.816 Z M2.05567 103.873 C2.30957 100.646 5.95215 101.53 7.77442 100.657 C10.3936 99.3984 12.6104 96.2226 11.708 92.0761 C10.9365 88.5351 6.78028 89.3906 6.34473 84.9257 C8.46582 83.1914 11.1201 84.2636 13.1358 83.4961 C15.8369 82.4648 17.6944 79.2539 17.4268 76.3457 C17.128 73.0859 13.5186 72.1425 13.1358 69.5527 C13.2295 68.4531 13.9131 67.9453 14.21 67.0507 C20.8135 69.0605 26.2432 65.8418 25.6494 59.9004 C25.3604 57.0078 22.6455 56.25 22.4326 53.1074 C23.2217 52.8261 23.3252 51.8574 23.8623 51.3213 C29.2686 53.5488 35.6162 52.1777 36.374 47.0322 C36.8428 43.8545 34.8526 42.4111 34.2295 39.167 C37.3838 37.8349 40.4033 40.5947 43.5244 39.5224 C48.9561 37.6591 50.6983 32.79 47.8135 26.2959 C48.5264 25.9365 49.3408 25.6787 49.6026 24.8662 C53.5264 25.4384 54.7315 29.1084 59.6123 27.3681 C64.3018 25.6943 62.2393 18.9443 65.3311 14.8564 C68.4502 15.2978 69.0362 18.2998 71.7666 18.7881 C78.3115 19.9599 80.9268 14.7724 80.7041 7.70605 C84.4658 5.42285 85.4209 11.5771 88.5694 12.3545 C90.9932 12.9521 94.3955 12.0986 95.7198 10.9248 C97.6651 9.19629 97.2119 5.62597 98.2217 2.70215 C103.423 0.893553 102.733 7.59472 106.442 8.4209 C113.802 9.70215 115.115 4.93847 116.453 0.200196 C117.526 0.200196 118.597 0.200196 119.673 0.200196 C120.89 5.8916 126.363 9.89553 131.11 6.63379 C133.265 5.15527 133.138 2.39941 135.044 0.200196 C139.228 0 138.501 4.2666 139.69 6.27636 C140.822 8.18945 143.494 9.67871 146.126 9.49316 C150.248 9.2041 150.22 5.72949 153.274 3.77441 C156.123 6.01465 155.384 10.4463 157.923 12.3545 C158.992 13.1572 162.015 14.3134 164.716 13.7841 C166.944 13.3466 169.065 8.57715 171.151 8.78027 C174.335 9.08691 172.315 13.3896 173.653 17.0009 C176.017 23.3799 183.302 17.7744 188.31 18.0732 C190.021 20.3584 188.105 22.3174 188.31 24.5088 C188.576 27.3525 190.942 29.8564 193.315 30.2275 C196.349 30.706 198.257 28.5849 201.181 27.7275 C204.16 29.7549 201.569 33.6455 201.894 36.3056 C202.608 42.1513 208.878 42.9736 213.692 39.8818 C217.132 42.1006 213.183 46.0654 213.335 49.1748 C213.453 51.6211 215.154 54.7129 217.623 55.2539 C220.147 55.8047 222.173 53.4531 224.774 54.539 C227.382 57.3183 222.987 59.9316 222.63 62.7597 C221.96 68.0605 225.824 71.4922 231.567 70.625 C234.194 73.8984 229.613 76.4824 229.423 79.5625 C229.261 82.1445 230.677 84.2558 232.281 86.3554 C234.36 86.6601 236.634 86.7695 238.358 87.4277 C239.744 91.6836 235.015 91.9238 234.069 94.9355 C233.121 101.484 236.378 103.828 241.22 104.588 C243.509 108.961 236.446 109.084 235.858 112.453 C234.46 119.211 238.501 120.534 241.935 122.463 C242.562 126.332 237.519 125.843 235.858 128.181 C234.783 129.694 233.946 133.129 234.783 135.689 C235.554 138.037 238.335 137.696 239.787 139.98 C239.804 143.345 235.878 142.756 234.069 143.912 C232.013 145.228 230.278 148.584 230.853 151.775 C231.396 154.81 234.231 154.265 235.142 157.498 C233.623 160.666 229.175 158.882 226.919 161.073 C225.953 162.009 224.565 165.028 224.774 167.148 C225.015 169.595 228.73 171.019 228.349 173.226 C227.86 176.073 225.317 174.384 221.558 175.373 C219.791 175.836 216.349 178.957 216.194 181.45 C216.067 183.484 218.39 185.325 219.054 187.882 C218.638 188.42 218.022 188.757 217.981 189.672 C215.373 190.58 213.856 188.939 211.548 189.314 C206.541 190.125 204.759 196.577 207.615 201.112 C205.419 202.855 202.737 201.129 200.464 201.468 C197.565 201.905 194.169 204.677 193.673 207.189 C193.078 210.194 196.289 213.528 192.601 215.054 C189.582 214.745 189.261 212.937 186.522 212.911 C179.89 212.843 180.855 219.909 178.3 224.707 C175.98 225.616 175.121 222.319 172.58 221.847 C168.679 221.123 165.804 223.295 163.998 226.136 C163.837 227.879 164.373 230.325 163.644 231.5 C160.455 234.239 159.267 228.912 156.136 228.282 C151.226 227.291 146.681 230.892 147.197 236.504 C142.976 239.614 142.567 232.961 138.617 232.215 C135.255 231.578 134.119 232.961 131.11 234.716 C131.103 237.112 128.55 241.752 125.748 239.006 C124.603 237.882 123.964 234.705 122.173 234.002 C119.957 233.131 116.324 233.72 114.664 235.075 C113.112 236.341 111.123 243.048 107.873 237.933 C107.296 237.021 107.664 235.396 106.802 234.359 C105.64 232.966 102.091 232.039 99.6514 232.573 C97.4033 233.062 96.6006 235.554 94.2881 237.218 C91.4268 236.931 92.0205 233.789 91.0713 232.215 C89.6885 229.92 86.3877 228.086 82.8487 228.638 C79.4463 229.17 77.8858 235.168 73.9112 231.857 C74.8623 227.12 73.7998 223.599 70.3369 222.918 C66.3408 222.132 61.876 226.308 58.5381 224.349 C58.2276 222.025 59.3408 220.271 58.8975 218.271 C58.2959 215.569 54.8975 213.509 52.1045 213.623 C48.9678 213.752 46.9541 217.756 44.2393 215.054 C43.4248 212.711 45.503 210.828 45.3135 208.62 C45.0889 206.056 42.6592 203.28 39.9502 202.9 C36.7705 202.453 34.2608 205.789 31.3682 203.256 C30.8037 199.269 33.4365 199.444 33.1573 195.748 C32.96 193.164 30.5518 190.441 28.1514 190.03 C24.6397 189.427 21.7198 192.636 20.2862 189.314 C19.7705 186.814 22.7471 185.732 23.1475 183.237 C23.917 178.448 19.8897 173.282 14.21 175.013 C13.8037 174.4 12.9737 173.673 12.7803 172.511 C12.4854 170.754 15.2803 169.412 15.6397 167.148 C16.5733 161.248 11.6826 157.953 6.34473 158.211 C3.917 154.597 10.04 153.455 10.6358 149.989 C11.5498 144.655 8.14356 141.416 2.41309 141.05 C0 137.082 5.53809 137.084 7.05957 134.974 C8.12012 133.504 9.0752 128.845 7.05957 126.037 C5.43653 123.775 0.5293 124.31 1.34082 121.034 C1.92481 118.664 4.84668 119.349 6.70215 117.457 C8.3545 115.775 8.99317 111.618 8.13184 109.234 C7.19629 106.644 3.83106 106.327 2.05567 103.873 Z" transform="translate(-1.25098, 0.151367)"/>
   <path style="fill:#004b80; fill-rule:nonzero;stroke:none;" d="M223.833 111.916 C223.833 173.727 173.728 223.832 111.917 223.832 C50.1074 223.832 0 173.727 0 111.916 C0 50.1064 50.1074 0 111.917 0 C173.728 0 223.833 50.1064 223.833 111.916 Z" transform="translate(8.45117, 8.25586)"/>
   <path style="fill:#ffffff; fill-rule:nonzero;stroke:none;" d="M215.203 107.602 C215.203 167.029 167.028 215.204 107.6 215.204 C48.1748 215.204 0 167.029 0 107.602 C0 48.1748 48.1748 0 107.6 0 C167.028 0 215.203 48.1748 215.203 107.602 Z" transform="translate(12.7666, 12.5703)"/>
   <path style="fill:#009630; fill-rule:nonzero;stroke:none;" d="M206.767 103.383 C206.767 160.48 160.48 206.767 103.382 206.767 C46.2861 206.767 0 160.48 0 103.383 C0 46.2861 46.2861 0 103.382 0 C160.48 0 206.767 46.2861 206.767 103.383 Z" transform="translate(16.9844, 16.7891)"/>
   <path style="fill:#ffffff; fill-rule:nonzero;stroke:none;" d="M204.866 0 L5.3536 0 C1.8877 11.293 0 23.3622 0 35.9172 C0 48.4692 1.8877 60.5402 5.3536 71.8312 L204.866 71.8312 C208.333 60.5402 210.222 48.4692 210.222 35.9172 C210.222 23.3622 208.333 11.293 204.866 0 Z" transform="translate(15.2568, 82.2568)"/>
   <path style="fill:#e20010; fill-rule:nonzero;stroke:none;" d="M0 0 L5.6533 0 L5.6533 20.547 L18.4589 20.547 L18.4589 25.686 L0 25.686 L0 0 Z" transform="translate(25.9307, 112.92)"/>
   <path style="fill:#e20010; fill-rule:nonzero;stroke:none;" d="M0 0 L5.6504 0 L5.6504 25.688 L0 25.688 L0 0 Z" transform="translate(48.0771, 112.92)"/>
   <path style="fill:#e20010; fill-rule:nonzero;stroke:none;" d="M0 0 L5.2109 0 L17.2461 15.815 L17.2461 0 L22.8222 0 L22.8222 25.686 L18.0166 25.686 L5.5762 9.356 L5.5762 25.686 L0 25.686 L0 0 Z" transform="translate(59.8799, 112.92)"/>
   <path style="fill:#009630; fill-rule:nonzero;stroke:none;" d="M0 0 L5.6533 0 L5.6533 20.547 L18.458 20.547 L18.458 25.686 L0 25.686 L0 0 Z" transform="translate(25.9307, 112.92)"/>
   <path style="fill:#009630; fill-rule:nonzero;stroke:none;" d="M0 0 L5.6504 0 L5.6504 25.688 L0 25.688 L0 0 Z" transform="translate(48.0762, 112.92)"/>
   <path style="fill:#009630; fill-rule:nonzero;stroke:none;" d="M0 0 L5.208 0 L17.2461 15.815 L17.2461 0 L22.8223 0 L22.8223 25.686 L18.0176 25.686 L5.5752 9.356 L5.5752 25.686 L0 25.686 L0 0 Z" transform="translate(59.8789, 112.92)"/>
   <path style="fill:#009630; fill-rule:nonzero;stroke:none;" d="M0 13.357 L0 13.284 C0 5.98 5.5059 0 13.3948 0 C18.2388 0 19.7788 1.334 21.9908 3.178 L19.9238 8.109 C17.9458 6.31 15.9268 5.211 13.3588 5.211 C9.0293 5.211 5.9072 8.806 5.9072 13.211 L5.9072 13.284 C5.9072 17.687 8.9531 21.357 13.3588 21.357 C16.2928 21.357 18.0898 20.183 20.1078 18.347 L23.7038 21.978 C21.0648 24.804 18.1278 26.568 13.1738 26.568 C5.6133 26.568 0 20.734 0 13.357 " transform="translate(87.4912, 112.479)"/>
   <path style="fill:#009630; fill-rule:nonzero;stroke:none;" d="M21.396 13.357 L21.396 13.284 C21.396 8.881 18.167 5.211 13.619 5.211 C9.068 5.211 5.91 8.806 5.91 13.211 L5.91 13.284 C5.91 17.687 9.142 21.357 13.691 21.357 C18.239 21.357 21.396 17.762 21.396 13.357 Z M0 13.357 L0 13.284 C0 5.98 5.764 0 13.691 0 C21.616 0 27.302 5.909 27.302 13.211 L27.302 13.284 C27.302 20.588 21.541 26.568 13.619 26.568 C5.689 26.568 0 20.661 0 13.357 " transform="translate(137.492, 112.479)"/>
   <path style="fill:#009630; fill-rule:nonzero;stroke:none;" d="M0 0 L5.652 0 L5.652 20.547 L18.459 20.547 L18.459 25.686 L0 25.686 L0 0 Z" transform="translate(169.528, 112.92)"/>
   <path style="fill:#009630; fill-rule:nonzero;stroke:none;" d="M0 0 L5.21 0 L17.248 15.815 L17.248 0 L22.824 0 L22.824 25.686 L18.017 25.686 L5.578 9.356 L5.578 25.686 L0 25.686 L0 0 Z" transform="translate(191.557, 112.92)"/>
   <path style="fill:#e20010; fill-rule:nonzero;stroke:none;" d="M0.192 0.232 L0 0 L0.183 0.238 C0.187 0.236 0.19 0.234 0.192 0.232 " transform="translate(140.989, 114.158)"/>
   <path style="fill:#e20010; fill-rule:nonzero;stroke:none;" d="M0 0 L0.003 0.005 L0 0 Z" transform="translate(140.986, 114.153)"/>
   <path style="fill:#004b80; fill-rule:nonzero;stroke:none;" d="M31.2592 33.3703 L37.3412 14.8173 L41.0732 19.2933 L41.0772 19.2973 L41.2692 19.5243 C41.2662 19.5263 41.2642 19.5303 41.2622 19.5323 L43.1712 22.0093 L49.7112 30.5063 Z M29.0762 30.8173 L28.8312 28.9913 L29.4932 28.9913 L29.4102 27.8343 L26.5102 27.8343 L26.5962 28.9093 L27.3352 28.9093 L27.5012 30.8973 C27.5012 30.8973 12.9252 14.4893 12.8422 14.4053 L13.1802 13.3753 L34.8432 13.3473 L29.0762 30.8173 Z M50.9532 32.7153 C51.1772 32.8213 51.4422 32.8863 51.6912 32.8863 C52.6052 32.8863 53.3502 32.1443 53.3502 31.2293 C53.3502 30.3313 52.6262 29.5863 51.7942 29.5713 L44.9802 20.5323 L45.0002 20.5223 L43.1732 17.9133 L43.1082 17.8343 L38.2742 11.8433 L39.1002 9.6083 C42.1682 9.1333 42.8762 8.3383 43.6862 7.4503 C44.4952 6.5653 44.3712 5.9613 43.1632 5.9633 C41.9542 5.9683 35.5882 6.3273 31.3052 6.5093 C30.4832 6.5343 29.8572 7.1103 30.5772 7.7333 C31.2962 8.3563 34.3042 9.4333 36.0492 9.6613 L35.7202 10.6753 L14.0112 10.6753 L15.5712 5.1348 L14.3302 2.8984 L15.4112 1.7383 L20.7142 1.7383 L20.6292 0 L14.5802 0 L11.7642 3.0625 L13.1722 5.4683 L8.7652 17.6253 L7.8332 20.6313 C7.8282 20.6443 7.8242 20.6553 7.8202 20.6703 L7.8032 20.7313 C6.5822 24.5503 5.3692 26.5523 1.6192 29.5713 C0.7012 29.6103 0 30.3473 0 31.2293 C0 32.1443 0.7461 32.8863 1.6582 32.8863 C2.5662 32.8863 3.2472 32.1443 3.2472 31.1873 C6.1412 28.8903 8.3962 26.6943 10.0232 22.3313 L11.0722 19.2613 C11.0702 19.2593 11.0702 19.2593 11.0672 19.2593 L11.1352 19.0793 L11.7582 17.3883 L27.1752 34.8233 C26.7192 36.1223 27.5192 37.4253 29.0482 37.6773 L30.0702 41.6683 L29.2412 41.6683 L29.2412 42.8273 L32.6392 42.6613 L32.5602 41.5863 L31.4822 41.5863 L30.6392 37.5933 C31.2022 37.2593 31.6712 36.8313 31.8762 36.2743 Z" transform="translate(99.1738, 94.6787)"/>
   <path style="fill:#004b80; fill-rule:nonzero;stroke:none;" d="M0.848 2.863 L0.848 0.484 L0 0.484 L0 0 L2.275 0 L2.275 0.484 L1.427 0.484 L1.427 2.863 L0.848 2.863 Z" transform="translate(215.267, 112.854)"/>
   <path style="fill:#004b80; fill-rule:nonzero;stroke:none;" d="M0 2.863 L0 0 L0.866 0 L1.386 1.953 L1.9 0 L2.767 0 L2.767 2.863 L2.23 2.863 L2.23 0.609 L1.661 2.863 L1.105 2.863 L0.538 0.609 L0.538 2.863 L0 2.863 Z" transform="translate(217.906, 112.854)"/>
   <path style="fill:#ffffff; fill-rule:nonzero;stroke:none;" d="M5.9707 7.373 L5.9825 7.351 C6.583 6.286 6.2569 5.177 5.3994 4.696 C4.543 4.213 3.3897 4.5 2.795 5.554 L2.7832 5.577 C2.1817 6.642 2.5401 7.765 3.3975 8.25 C4.2647 8.739 5.3584 8.459 5.9707 7.373 Z M1.7481 7.487 L1.2657 8.342 L0 7.629 L4.2998 0 L5.5645 0.713 L3.8565 3.745 C4.5879 3.398 5.4219 3.261 6.3106 3.763 C7.6172 4.5 8.2989 6.246 7.2686 8.077 L7.2569 8.097 C6.2256 9.925 4.3887 10.254 3.0713 9.511 C2.1621 9 1.8467 8.215 1.7481 7.487 Z" transform="translate(70.5986, 195.4)"/>
   <path style="fill:#ffffff; fill-rule:nonzero;stroke:none;" d="M3.7246 0 L5.1289 0.677 L4.5283 1.919 L3.124 1.242 L3.7246 0 Z M2.7558 2.143 L4.0625 2.774 L1.3076 8.477 L0 7.846 L2.7558 2.143 Z" transform="translate(78.001, 199.188)"/>
   <path style="fill:#ffffff; fill-rule:nonzero;stroke:none;" d="M0.6914 2.545 L0.7002 2.523 C1.3916 0.862 3.2568 0 5.0078 0.728 C6.1152 1.189 6.6318 1.884 6.9258 2.709 L5.7217 3.259 C5.4912 2.659 5.1836 2.179 4.5078 1.898 C3.5332 1.493 2.4736 2.039 2.0498 3.058 L2.041 3.08 C1.6074 4.123 1.9775 5.263 3.0078 5.691 C3.6397 5.955 4.2285 5.849 4.8291 5.592 L5.3066 6.726 C4.4629 7.129 3.5986 7.302 2.457 6.829 C0.7178 6.103 0 4.207 0.6914 2.545 Z" transform="translate(81.4414, 203.025)"/>
   <path style="fill:#ffffff; fill-rule:nonzero;stroke:none;" d="M0 7.645 L0.8028 6.77 C1.0098 6.99 1.2539 7.171 1.5391 7.264 C1.9268 7.391 2.2227 7.298 2.6221 6.847 L2.0772 0 L3.5498 0.481 L3.8018 5.514 L6.8252 1.55 L8.2627 2.02 L3.8448 7.434 C2.9629 8.511 2.2784 8.793 1.3077 8.477 C0.7256 8.285 0.3477 8.013 0 7.645 Z" transform="translate(87.3066, 205.091)"/>
   <path style="fill:#ffffff; fill-rule:nonzero;stroke:none;" d="M0.4326 2.902 L0.4385 2.879 C0.8711 1.133 2.585 0 4.4248 0.455 C5.5876 0.745 6.2046 1.353 6.6186 2.123 L5.5106 2.849 C5.1936 2.289 4.8174 1.864 4.1074 1.687 C3.083 1.433 2.1182 2.133 1.8525 3.205 L1.8477 3.228 C1.5762 4.323 2.1133 5.394 3.1963 5.663 C3.8604 5.827 4.4268 5.633 4.9815 5.289 L5.6236 6.338 C4.8516 6.864 4.0234 7.164 2.8242 6.868 C0.9961 6.414 0 4.648 0.4326 2.902 Z" transform="translate(94.8164, 207.441)"/>
   <path style="fill:#ffffff; fill-rule:nonzero;stroke:none;" d="M1.627 0 L3.055 0.271 L1.429 8.879 L0 8.61 L1.627 0 Z" transform="translate(101.78, 206.458)"/>
   <path style="fill:#ffffff; fill-rule:nonzero;stroke:none;" d="M1.233 0 L2.775 0.233 L2.57 1.599 L1.027 1.365 L1.233 0 Z M0.942 2.336 L2.379 2.552 L1.436 8.821 L0 8.604 L0.942 2.336 Z" transform="translate(105.296, 207.085)"/>
   <path style="fill:#ffffff; fill-rule:nonzero;stroke:none;" d="M0.565 0 L2.011 0.131 L1.923 1.11 C2.383 0.549 3.014 0.088 3.992 0.176 C5.414 0.303 6.154 1.332 6.023 2.801 L5.663 6.817 L4.219 6.687 L4.538 3.103 C4.625 2.123 4.187 1.519 3.325 1.441 C2.49 1.366 1.853 1.9 1.765 2.879 L1.446 6.439 L0 6.31 L0.565 0 Z" transform="translate(108.871, 209.913)"/>
   <path style="fill:#ffffff; fill-rule:nonzero;stroke:none;" d="M0.03 3.312 L0.031 3.288 C0.06 1.487 1.476 0 3.371 0.032 C4.571 0.051 5.307 0.506 5.883 1.165 L4.967 2.122 C4.533 1.646 4.07 1.316 3.337 1.301 C2.283 1.284 1.5 2.184 1.482 3.288 L1.482 3.312 C1.462 4.439 2.227 5.362 3.342 5.381 C4.027 5.394 4.535 5.077 4.999 4.616 L5.86 5.495 C5.225 6.18 4.486 6.659 3.25 6.639 C1.366 6.609 0 5.111 0.03 3.312 Z" transform="translate(116.363, 210.368)"/>
   <path style="fill:#ffffff; fill-rule:nonzero;stroke:none;" d="M5.416 3.332 L5.414 3.308 C5.34 2.193 4.475 1.325 3.338 1.4 C2.175 1.476 1.495 2.437 1.567 3.539 L1.569 3.562 C1.641 4.664 2.506 5.545 3.632 5.47 C4.805 5.392 5.488 4.422 5.416 3.332 Z M0.121 3.681 L0.12 3.659 C0 1.849 1.337 0.258 3.278 0.129 C5.217 0 6.742 1.379 6.862 3.187 L6.863 3.213 C6.982 5.008 5.643 6.601 3.692 6.73 C1.762 6.857 0.24 5.478 0.121 3.681 Z" transform="translate(123.063, 210.066)"/>
   <path style="fill:#ffffff; fill-rule:nonzero;stroke:none;" d="M0 0.186 L1.439 0 L2.554 8.69 L1.113 8.873 L0 0.186 Z" transform="translate(130.841, 207.298)"/>
   <path style="fill:#ffffff; fill-rule:nonzero;stroke:none;" d="M0 1.031 L1.428 0.761 L1.609 1.731 C1.899 1.065 2.382 0.447 3.349 0.265 C4.753 0 5.745 0.789 6.018 2.24 L6.767 6.203 L5.341 6.472 L4.672 2.935 C4.488 1.968 3.9 1.503 3.052 1.666 C2.226 1.821 1.758 2.507 1.939 3.474 L2.602 6.99 L1.177 7.259 L0 1.031 Z" transform="translate(134.385, 208.449)"/>
   <path style="fill:#ffffff; fill-rule:nonzero;stroke:none;" d="M0 0.391 L1.546 0 L1.951 1.593 L0.405 1.983 L0 0.391 Z" transform="translate(142.82, 212.143)"/>
   <path style="fill:#ffffff; fill-rule:nonzero;stroke:none;" d="M5.609 3.185 L5.601 3.162 C5.261 2.101 4.216 1.463 3.13 1.81 C2.022 2.164 1.59 3.258 1.925 4.31 L1.932 4.332 C2.268 5.383 3.319 6.032 4.392 5.688 C5.512 5.33 5.941 4.226 5.609 3.185 Z M0.556 4.797 L0.55 4.774 C0 3.047 0.916 1.183 2.765 0.59 C4.618 0 6.425 0.974 6.976 2.698 L6.985 2.722 C7.532 4.437 6.616 6.301 4.753 6.896 C2.914 7.483 1.105 6.51 0.556 4.797 Z" transform="translate(144.854, 205.583)"/>
   <path style="fill:#ffffff; fill-rule:nonzero;stroke:none;" d="M0 1.485 L1.348 0.945 L1.878 2.27 C1.894 1.242 2.332 0.369 3.386 0 L3.956 1.427 L3.879 1.457 C2.696 1.931 2.181 3.027 2.805 4.589 L3.699 6.826 L2.352 7.365 L0 1.485 Z" transform="translate(152.169, 203.257)"/>
   <path style="fill:#ffffff; fill-rule:nonzero;stroke:none;" d="M5.441 3.205 L5.429 3.182 C4.974 2.242 3.899 1.975 2.992 2.416 C2.084 2.856 1.674 3.828 2.13 4.766 L2.139 4.789 C2.595 5.729 3.628 6.014 4.525 5.582 C5.432 5.141 5.884 4.123 5.441 3.205 Z M3.138 9.494 L3.149 8.274 C3.937 8.36 4.696 8.272 5.472 7.895 C6.639 7.332 6.985 6.417 6.428 5.272 L6.215 4.83 C6.038 5.675 5.653 6.395 4.713 6.85 C3.374 7.5 1.638 7.112 0.828 5.438 L0.817 5.417 C0 3.731 0.784 2.126 2.112 1.481 C3.074 1.014 3.882 1.171 4.582 1.485 L4.168 0.632 L5.474 0 L7.673 4.537 C8.138 5.498 8.237 6.332 7.992 7.037 C7.723 7.805 7.045 8.442 6.018 8.938 C5.079 9.395 4.088 9.582 3.138 9.494 Z" transform="translate(156.772, 200.229)"/>
  </g>
 </g>
</svg>
