<svg xmlns="http://www.w3.org/2000/svg" viewBox="0 0 429 60.2"><title>Asset 1</title><polygon points="156.3 24.8 164 24.8 164 52.6 181.3 52.6 181.3 59.6 156.3 59.6 156.3 24.8" style="fill:#ed1c24"/><rect x="186.3" y="24.8" width="7.7" height="34.85" style="fill:#ed1c24"/><polygon points="202.3 24.8 209.4 24.8 225.7 46.2 225.7 24.8 233.3 24.8 233.3 59.6 226.8 59.6 209.9 37.4 209.9 59.6 202.3 59.6 202.3 24.8" style="fill:#ed1c24"/><polygon points="156.3 24.8 164 24.8 164 52.6 181.3 52.6 181.3 59.6 156.3 59.6 156.3 24.8" style="fill:#1b75bc"/><rect x="186.3" y="24.8" width="7.7" height="34.85" style="fill:#1b75bc"/><polygon points="202.3 24.8 209.4 24.8 225.7 46.2 225.7 24.8 233.3 24.8 233.3 59.6 226.8 59.6 209.9 37.4 209.9 59.6 202.3 59.6 202.3 24.8" style="fill:#1b75bc"/><path d="M239.8,42.3h0a17.7,17.7,0,0,1,18.2-18c6.6,0,8.6,1.8,11.6,4.3l-2.8,6.7c-2.6-2.5-5.4-4-8.9-4-5.8,0-10.1,4.9-10.1,10.9h0c0,6,4.2,10.9,10.1,10.9,4,0,6.5-1.6,9.2-4.1l4.9,5a18,18,0,0,1-14.3,6.2,17.6,17.6,0,0,1-17.9-17.9" style="fill:#1b75bc"/><path d="M307.7,42.3h0c0-9.9,7.8-18,18.5-18s18.5,8,18.5,17.9h0c0,9.9-7.8,18-18.6,18s-18.4-8-18.4-17.9m29,0h0c0-6-4.4-11-10.6-11s-10.4,4.9-10.4,10.9h0c0,6,4.4,10.9,10.5,10.9s10.5-4.8,10.5-10.8" style="fill:#1b75bc"/><polygon points="351.1 24.8 358.8 24.8 358.8 52.6 376.2 52.6 376.2 59.6 351.1 59.6 351.1 24.8" style="fill:#1b75bc"/><polygon points="381 24.8 388.1 24.8 404.4 46.2 404.4 24.8 412 24.8 412 59.6 405.5 59.6 388.6 37.4 388.6 59.6 381 59.6 381 24.8" style="fill:#1b75bc"/><polyline points="312.7 26.7 312.4 26.4 312.6 26.8 312.7 26.7" style="fill:#ed1c24"/><polygon points="312.4 26.4 312.4 26.4 312.4 26.4 312.4 26.4" style="fill:#ed1c24"/><path d="M0,24.8H16.2c4,0,7.1,1,9.1,3a8.1,8.1,0,0,1,2.4,6h0a8.1,8.1,0,0,1-4.6,7.5c4,1.5,6.5,3.9,6.5,8.5h0c0,6.4-5.2,9.6-13,9.6H0Zm14.5,14c3.4,0,5.6-1.1,5.6-3.6h0c0-2.3-1.8-3.6-5.1-3.6H7.5v7.3Zm2.1,14.1c3.4,0,5.4-1.2,5.4-3.8h0c0-2.3-1.7-3.8-5.7-3.8H7.5v7.7Z" style="fill:#009444"/><rect x="36.1" y="24.8" width="7.7" height="34.85" style="fill:#009444"/><path d="M50.4,42.3h0a17.6,17.6,0,0,1,18.1-18c6.6,0,10.5,2.1,13.8,5.3l-4.9,5.7c-2.7-2.5-5.4-4-8.9-4-5.9,0-10.1,4.9-10.1,10.9h0c0,6,4.1,10.9,10.1,10.9,4,0,6.4-1.6,9.1-4.1l4.9,5a18,18,0,0,1-14.3,6.2A17.5,17.5,0,0,1,50.4,42.3" style="fill:#009444"/><polygon points="97.8 45.9 84.4 24.8 93.4 24.8 101.7 38.7 110.2 24.8 118.9 24.8 105.5 45.7 105.5 59.6 97.8 59.6 97.8 45.9" style="fill:#009444"/><path d="M118.8,42.3h0a17.7,17.7,0,0,1,18.2-18c6.6,0,10.5,2.1,13.7,5.3l-4.8,5.7c-2.7-2.5-5.5-4-9-4-5.8,0-10.1,4.9-10.1,10.9h0c0,6,4.2,10.9,10.1,10.9,4,0,6.5-1.6,9.2-4.1l4.9,5a18,18,0,0,1-14.3,6.2,17.6,17.6,0,0,1-17.9-17.9" style="fill:#009444"/><path d="M324.8,44.4l1,.2a2.3,2.3,0,0,0,.1-4.5l-9.2-12.2h0l-2.5-3.5h0l-6.6-8.1,1.1-3.1c4.2-.6,5.1-1.7,6.2-2.9s1-2-.7-2l-16.1.7c-1.1.1-1.9.9-1,1.7a22.5,22.5,0,0,0,7.5,2.6l-.5,1.4H274.7L276.8,7l-1.7-3.1,1.5-1.5h7.2V0h-8.3l-3.8,4.2,1.9,3.2-5.9,16.5L266.3,28h-.1c-1.6,5.2-3.2,7.9-8.3,12a2.3,2.3,0,0,0-2.2,2.3,2.2,2.2,0,0,0,2.2,2.2,2.2,2.2,0,0,0,2.2-2.3c3.9-3.1,7-6.1,9.2-12l1.4-4.2h0v-.2l.8-2.3,20.9,23.7a2.9,2.9,0,0,0,2.6,3.8l1.4,5.4h-1.2v1.6l4.6-.2V56.4h-1.4L297.2,51a3.3,3.3,0,0,0,1.7-1.8m-3.8-7.4-.3-2.5h.9V37.8h-4v1.4h1.1l.2,2.7L273.1,19.5l.4-1.3h29.4Zm3,3.5,8.2-25.2,5.1,6.1h0l.3.3h-.1l2.6,3.4,8.9,11.5" style="fill:#009444"/><text transform="translate(414.6 32.1)" style="font-size:10px;fill:#009444;font-family:Arial-BoldMT, Arial;font-weight:700">TM</text></svg>